<svg width="242" height="95" viewBox="0 0 242 95" fill="none" xmlns="http://www.w3.org/2000/svg">
<g clip-path="url(#clip0_2_51)" filter="url(#filter0_d_2_51)">
<path d="M124.81 28.8164L135.942 28.096C136.196 29.9182 136.662 31.2742 137.424 32.2489C138.652 33.7745 140.345 34.5373 142.588 34.5373C144.239 34.5373 145.551 34.1559 146.44 33.3507C147.287 32.715 147.795 31.698 147.795 30.6386C147.795 29.6215 147.329 28.6469 146.525 28.0112C145.678 27.2484 143.689 26.4856 140.556 25.8076C135.435 24.6634 131.752 23.1378 129.593 21.1885C127.434 19.3663 126.207 16.6965 126.291 13.8573C126.291 11.9079 126.884 9.95859 127.984 8.34826C129.254 6.52605 130.99 5.08523 133.064 4.28007C135.308 3.3054 138.44 2.79688 142.377 2.79688C147.202 2.79688 150.885 3.68679 153.425 5.509C155.965 7.28884 157.488 10.1705 157.954 14.1115L146.948 14.7472C146.652 13.0521 146.059 11.8232 145.086 11.018C144.112 10.2129 142.842 9.83146 141.191 9.83146C139.837 9.83146 138.821 10.1281 138.144 10.679C137.509 11.1875 137.085 11.9503 137.128 12.7978C137.128 13.4335 137.466 14.0268 137.974 14.4082C138.525 14.9167 139.837 15.3828 141.911 15.8066C147.033 16.9084 150.673 18.0102 152.917 19.1544C155.16 20.2986 156.769 21.697 157.742 23.3497C158.758 25.0448 159.266 26.9941 159.224 28.9859C159.224 31.359 158.547 33.7321 157.192 35.7238C155.795 37.8003 153.848 39.4106 151.562 40.3853C149.149 41.4447 146.102 41.9956 142.461 41.9956C136.027 41.9956 131.583 40.7667 129.085 38.2664C126.588 35.7662 125.106 32.6303 124.81 28.8164ZM6.66679 41.36V3.47491H26.1809C29.7789 3.47491 32.5727 3.77155 34.4776 4.4072C36.3401 5.00048 37.991 6.22941 39.0915 7.88212C40.3191 9.70433 40.9117 11.8232 40.8694 14.0268C40.9964 17.756 39.0915 21.3156 35.8321 23.1802C34.5622 23.9006 33.1653 24.4092 31.7261 24.6634C32.7844 24.9601 33.8426 25.4686 34.7739 26.0619C35.4935 26.6551 36.0861 27.3332 36.6364 28.0536C37.2713 28.774 37.8216 29.5791 38.2873 30.4267L43.9595 41.4023H30.6679L24.403 29.7487C23.5988 28.2655 22.9215 27.2908 22.2865 26.8246C21.4399 26.2314 20.424 25.9347 19.4081 25.9347H18.3922V41.3176H6.66679V41.36ZM18.3922 18.8154H23.3448C24.403 18.7306 25.419 18.5611 26.4349 18.3069C27.1968 18.1797 27.8741 17.756 28.3397 17.1203C29.4826 15.5947 29.3133 13.4335 27.9164 12.1198C27.1545 11.4842 25.6729 11.1451 23.5564 11.1451H18.3922V18.8154ZM4 73.8207L15.1328 73.1003C15.3868 74.9225 15.8524 76.2786 16.6143 77.2533C17.7996 78.7789 19.5351 79.584 21.7786 79.584C23.4295 79.584 24.7417 79.2026 25.6306 78.3975C26.4772 77.7194 26.9852 76.7448 26.9852 75.6853C26.9852 74.6683 26.5195 73.6936 25.7153 73.058C24.8687 72.2952 22.8792 71.5324 19.7044 70.8543C14.5825 69.7102 10.8998 68.1846 8.74096 66.2353C6.58213 64.413 5.35456 61.7433 5.43922 58.904C5.43922 56.9547 6.03184 55.0054 7.13242 53.395C8.40232 51.5728 10.1378 50.132 12.212 49.3268C14.4555 48.3522 17.5879 47.8436 21.5246 47.8436C26.3502 47.8436 30.0329 48.7336 32.5727 50.5558C35.1125 52.378 36.5941 55.2172 37.0597 59.1583L26.0539 59.794C25.7576 58.0989 25.165 56.8699 24.1914 56.0648C23.2601 55.2596 21.9479 54.8782 20.297 54.9206C18.9425 54.9206 17.9266 55.2172 17.2493 55.8105C16.572 56.319 16.191 57.0818 16.2334 57.9294C16.2334 58.565 16.572 59.1583 17.08 59.5397C17.6302 60.0482 18.9425 60.5144 21.0166 60.9381C26.1386 62.0399 29.7789 63.1417 32.0224 64.2859C34.2659 65.4301 35.8745 66.8285 36.848 68.4812C37.864 70.1763 38.3719 72.1257 38.3719 74.075C38.3719 76.4481 37.6523 78.7789 36.3401 80.7706C34.9432 82.847 32.996 84.4574 30.7102 85.432C28.2974 86.4915 25.2496 87.0424 21.6093 87.0424C15.1751 87.0424 10.7305 85.8134 8.233 83.3132C5.73553 80.7706 4.33864 77.6347 4 73.8207H4Z" fill="white"/>
<path d="M60.2988 70.8543L70.5426 73.9479C69.9924 76.5329 68.8494 78.9907 67.2832 81.152C65.844 83.0589 63.9392 84.5421 61.7803 85.5168C59.5792 86.4915 56.7854 87 53.399 87C49.293 87 45.9066 86.4067 43.3245 85.2201C40.7 84.0336 38.4565 81.9147 36.5517 78.906C34.6468 75.8972 33.7156 72.0409 33.7156 67.337C33.7156 61.0652 35.3664 56.2343 38.7105 52.8865C42.0546 49.5387 46.7532 47.8436 52.8487 47.8436C57.632 47.8436 61.357 48.8183 64.1085 50.7253C66.8176 52.6746 68.8494 55.641 70.204 59.6244L59.8755 61.9128C59.6215 61.0229 59.2405 60.133 58.7326 59.3702C58.0976 58.4803 57.2934 57.8022 56.3198 57.2937C55.3462 56.7852 54.2456 56.5733 53.145 56.5733C50.4782 56.5733 48.4464 57.6327 47.0495 59.7939C45.9913 61.3619 45.441 63.8621 45.441 67.2523C45.441 71.4476 46.0759 74.3293 47.3458 75.8972C48.6157 77.4652 50.3936 78.2279 52.7217 78.2279C54.9652 78.2279 56.6584 77.5923 57.8013 76.3633C58.9442 75.0497 59.7908 73.2275 60.2988 70.8543ZM84.2152 48.4793H95.8983V61.7433H108.682V48.4793H120.45V86.3643H108.682V71.0239H95.8983V86.3643H84.2152V48.4793Z" fill="white"/>
<path d="M118.841 67.4218C118.841 61.2348 120.577 56.4038 124.006 52.9713C127.434 49.5387 132.26 47.8013 138.398 47.8013C144.705 47.8013 149.531 49.4963 152.959 52.8865C156.388 56.2767 158.081 61.0229 158.081 67.1252C158.081 71.5748 157.319 75.1768 155.838 78.0161C154.398 80.813 152.155 83.1013 149.404 84.6269C146.567 86.1948 143.054 87 138.863 87C134.588 87 131.075 86.322 128.281 84.9659C125.402 83.5251 123.032 81.2791 121.466 78.5246C119.73 75.5582 118.841 71.8714 118.841 67.4218ZM130.524 67.4642C130.524 71.2781 131.244 74.0326 132.641 75.7277C134.038 77.3804 135.985 78.228 138.44 78.228C140.938 78.228 142.885 77.4228 144.282 75.7701C145.679 74.1174 146.356 71.1934 146.356 66.9557C146.356 63.396 145.636 60.7686 144.197 59.1583C142.758 57.5056 140.811 56.7004 138.355 56.7004C136.197 56.6157 134.122 57.548 132.683 59.2007C131.244 60.8534 130.524 63.6079 130.524 67.4642ZM170.061 67.4218C170.061 61.2348 171.796 56.4038 175.225 52.9713C178.654 49.5387 183.479 47.8013 189.617 47.8013C195.924 47.8013 200.792 49.4963 204.179 52.8865C207.565 56.2767 209.3 61.0229 209.3 67.1252C209.3 71.5748 208.539 75.1768 207.057 78.0161C205.618 80.813 203.374 83.1013 200.623 84.6269C197.787 86.1948 194.273 87 190.083 87C185.807 87 182.294 86.322 179.5 84.9659C176.622 83.5251 174.251 81.2791 172.685 78.5246C170.949 75.5582 170.061 71.8714 170.061 67.4218ZM181.744 67.4642C181.744 71.2781 182.463 74.0326 183.86 75.7277C185.257 77.3804 187.204 78.228 189.659 78.228C192.157 78.228 194.104 77.4228 195.501 75.7701C196.898 74.1174 197.575 71.1934 197.575 66.9557C197.575 63.396 196.855 60.7686 195.416 59.1583C193.977 57.5056 192.03 56.7004 189.575 56.7004C187.416 56.6157 185.299 57.548 183.902 59.2007C182.463 60.8534 181.744 63.6079 181.744 67.4642Z" fill="white"/>
<path d="M208.073 48.4793H219.756V77.0414H238V86.3643H208.03V48.4793H208.073Z" fill="white"/>
<path d="M195.196 46.2929C206.958 37.4192 210.585 22.3768 203.297 12.6948C196.009 3.01274 180.565 2.3575 168.803 11.2312C157.041 20.105 153.414 35.1474 160.702 44.8294C167.99 54.5115 183.433 55.1667 195.196 46.2929Z" fill="white"/>
<path d="M130.704 23.9602L191.487 -21.8955L233.547 33.9799L172.764 79.8356L130.704 23.9602Z" fill="#192F2D"/>
<path d="M195.196 46.2929C206.958 37.4192 210.585 22.3768 203.297 12.6948C196.009 3.01274 180.565 2.3575 168.803 11.2312C157.041 20.105 153.414 35.1474 160.702 44.8294C167.99 54.5115 183.433 55.1667 195.196 46.2929Z" fill="#192F2D"/>
<path d="M147.63 27.6912L190.192 -4.41721L216.609 30.6788L174.047 62.7872L147.63 27.6912Z" fill="#192F2D"/>
<path d="M195.196 46.2929C206.958 37.4192 210.585 22.3768 203.297 12.6948C196.009 3.01274 180.565 2.3575 168.803 11.2312C157.041 20.105 153.414 35.1474 160.702 44.8294C167.99 54.5115 183.433 55.1667 195.196 46.2929Z" fill="#192F2D" stroke="white" stroke-width="4" stroke-miterlimit="10"/>
<path d="M147.63 27.6912L190.192 -4.41721L216.609 30.6788L174.047 62.7872L147.63 27.6912Z" stroke="white" stroke-width="4" stroke-miterlimit="10"/>
<path d="M195.196 46.2929C206.958 37.4192 210.585 22.3768 203.297 12.6948C196.009 3.01274 180.565 2.3575 168.803 11.2312C157.041 20.105 153.414 35.1474 160.702 44.8294C167.99 54.5115 183.433 55.1667 195.196 46.2929Z" stroke="white" stroke-width="4" stroke-miterlimit="10"/>
<path d="M147.63 27.6912L190.192 -4.41721L216.609 30.6788L174.047 62.7872L147.63 27.6912Z" fill="#192F2D"/>
<path d="M195.196 46.2929C206.958 37.4192 210.585 22.3768 203.297 12.6948C196.009 3.01274 180.565 2.3575 168.803 11.2312C157.041 20.105 153.414 35.1474 160.702 44.8294C167.99 54.5115 183.433 55.1667 195.196 46.2929Z" fill="#192F2D" stroke="white" stroke-width="4" stroke-miterlimit="10"/>
<path d="M147.63 27.6912L190.192 -4.41721L216.609 30.6788L174.047 62.7872L147.63 27.6912Z" stroke="white" stroke-width="4" stroke-miterlimit="10"/>
<path d="M130.704 23.9602L191.487 -21.8955L233.547 33.9799L172.764 79.8356L130.704 23.9602Z" stroke="white" stroke-width="4" stroke-miterlimit="10"/>
<path d="M195.196 46.2929C206.958 37.4192 210.585 22.3768 203.297 12.6948C196.009 3.01274 180.565 2.3575 168.803 11.2312C157.041 20.105 153.414 35.1474 160.702 44.8294C167.99 54.5115 183.433 55.1667 195.196 46.2929Z" stroke="white" stroke-width="4" stroke-miterlimit="10"/>
<path d="M170.103 25.9772L174.336 23.0108L179.542 30.4267C180.431 31.6133 181.109 32.8846 181.616 34.283C181.913 35.3425 181.828 36.4867 181.405 37.5037C180.855 38.775 179.966 39.8344 178.78 40.5972C177.383 41.5719 176.198 42.1228 175.182 42.2923C174.209 42.4618 173.193 42.2923 172.262 41.8685C171.246 41.36 170.357 40.6396 169.679 39.7073L173.32 36.3171C173.616 36.7833 173.997 37.2071 174.42 37.5461C174.717 37.758 175.055 37.8851 175.436 37.8851C175.733 37.8851 176.029 37.758 176.241 37.5885C176.664 37.3342 176.96 36.8257 176.918 36.3171C176.791 35.5967 176.495 34.8763 176.029 34.3254L170.103 25.9772ZM182.802 30.681L186.654 27.6299C187.077 28.1384 187.627 28.5198 188.22 28.7317C189.067 28.9859 189.955 28.8164 190.675 28.2655C191.183 27.9265 191.606 27.4603 191.776 26.8671C192.03 26.1043 191.606 25.2567 190.844 25.0025C190.717 24.9601 190.59 24.9177 190.463 24.9177C189.955 24.8753 189.067 25.0872 187.754 25.6381C185.596 26.5281 183.902 26.8671 182.632 26.7399C181.405 26.6128 180.262 25.9772 179.585 24.9177C179.077 24.1973 178.823 23.3498 178.78 22.5022C178.78 21.5276 179.034 20.5529 179.585 19.7477C180.389 18.6036 181.363 17.6289 182.548 16.8661C184.326 15.6372 185.892 15.0439 187.246 15.0439C188.601 15.0439 189.871 15.6795 191.056 16.9932L187.246 20.002C186.484 19.0273 185.045 18.8154 184.072 19.5782L183.945 19.7054C183.521 19.9596 183.225 20.341 183.056 20.8072C182.929 21.1462 183.013 21.5276 183.225 21.8242C183.394 22.0361 183.648 22.2056 183.945 22.2056C184.283 22.248 184.876 22.0785 185.722 21.6971C187.839 20.8072 189.448 20.2986 190.548 20.1291C191.479 19.9596 192.453 20.0444 193.342 20.4258C194.146 20.7648 194.823 21.3581 195.289 22.0785C195.882 22.926 196.22 23.9431 196.263 25.0025C196.305 26.1043 196.009 27.1637 195.416 28.096C194.654 29.2402 193.681 30.2149 192.538 30.9776C190.209 32.588 188.305 33.266 186.781 33.0117C185.13 32.7575 183.775 31.9099 182.802 30.681Z" fill="white"/>
</g>
<defs>
<filter id="filter0_d_2_51" x="0" y="0" width="242" height="95" filterUnits="userSpaceOnUse" color-interpolation-filters="sRGB">
<feFlood flood-opacity="0" result="BackgroundImageFix"/>
<feColorMatrix in="SourceAlpha" type="matrix" values="0 0 0 0 0 0 0 0 0 0 0 0 0 0 0 0 0 0 127 0" result="hardAlpha"/>
<feOffset dy="4"/>
<feGaussianBlur stdDeviation="2"/>
<feComposite in2="hardAlpha" operator="out"/>
<feColorMatrix type="matrix" values="0 0 0 0 0 0 0 0 0 0 0 0 0 0 0 0 0 0 0.25 0"/>
<feBlend mode="normal" in2="BackgroundImageFix" result="effect1_dropShadow_2_51"/>
<feBlend mode="normal" in="SourceGraphic" in2="effect1_dropShadow_2_51" result="shape"/>
</filter>
<clipPath id="clip0_2_51">
<rect width="234" height="87" fill="white" transform="translate(4)"/>
</clipPath>
</defs>
</svg>
